<svg height="30" viewBox="0 0 205 30" width="205" xmlns="http://www.w3.org/2000/svg" xmlns:xlink="http://www.w3.org/1999/xlink"><filter id="a" height="123.3%" width="100.7%" x="-.4%" y="-8.3%"><feOffset dy="2" in="SourceAlpha" result="shadowOffsetOuter1"/><feGaussianBlur in="shadowOffsetOuter1" result="shadowBlurOuter1" stdDeviation="2"/><feColorMatrix in="shadowBlurOuter1" result="shadowMatrixOuter1" values="0 0 0 0 0 0 0 0 0 0 0 0 0 0 0 0 0 0 0.5 0"/><feMerge><feMergeNode in="shadowMatrixOuter1"/><feMergeNode in="SourceGraphic"/></feMerge></filter><g fill="none" fill-rule="evenodd" filter="url(#a)" transform="translate(-228 -17)"><path d="m287.928 19h-3.358v1.816h3.358c3.019 0 4.97 1.938 4.97 4.937v7.74c0 3-1.951 4.937-4.97 4.937h-3.358v1.816h3.358c4.153 0 6.944-2.765 6.944-6.88v-7.486c0-4.115-2.79-6.88-6.944-6.88zm-6.499 21.246h1.973v-21.246h-1.973zm62.969-14.97c0-3.754-2.88-6.276-7.167-6.276h-6.116v1.784h6.052c3.203 0 5.193 1.721 5.193 4.491 0 2.845-2.039 4.683-5.193 4.683h-2.9v1.752h2.964c.349 0 .7-.027 1.048-.055l3.914 8.591h2.166l-4.108-9.049c2.6-.946 4.147-3.147 4.147-5.922zm-13.283 14.97h1.975v-18.284h-1.975zm-85.832-14.97c0-3.754-2.88-6.276-7.167-6.276h-6.116v1.784h6.052c3.203 0 5.192 1.721 5.192 4.491 0 2.845-2.038 4.683-5.192 4.683h-2.903v1.752h2.967c.348 0 .699-.027 1.048-.055l3.914 8.591h2.166l-4.108-9.049c2.6-.946 4.147-3.147 4.147-5.922zm-13.283 14.969h1.975v-18.283h-1.975v18.284zm79.636-21.245-7.05 21.246h1.993l6.953-21.246zm1.476 5.001 3.005 9.11h-5.948l-.58 1.816h7.111l1.752 5.32h2.089l-6.434-19.269zm-49.684 0 3.005 9.11h-5.948l-.58 1.816h7.11l1.753 5.32h2.088l-6.433-19.269zm.42-5-6.954 21.245h-1.992l7.048-21.246h1.896z" fill="#fff"/><path d="m428.888 23.106-4.126 7.888v5.44c0 .136-.068.203-.203.203h-.748c-.135 0-.202-.067-.202-.202v-5.44l-4.126-7.889a.137.137 0 0 1 .01-.152c.033-.047.084-.07.151-.07h.79c.134 0 .235.068.303.202l3.458 6.573h.061l3.398-6.573c.067-.134.168-.202.303-.202h.769c.08 0 .134.023.162.07a.153.153 0 0 1 0 .152zm-22.31 8.839 2.59-7.2h.06l2.569 7.2zm3.237-8.859c-.04-.134-.122-.202-.243-.202h-.728c-.122 0-.203.068-.243.202l-4.814 13.349c-.04.135.007.202.142.202h.789c.121 0 .209-.067.262-.202l1.214-3.378h5.987l1.213 3.378c.027.135.115.202.264.202h.788c.135 0 .183-.067.142-.202zm-12.055 12.661v.688c0 .135-.067.202-.202.202h-7.868c-.135 0-.202-.067-.202-.202v-13.349c0-.134.067-.202.202-.202h.748c.135 0 .203.068.203.202v12.338c0 .08.04.12.12.12h6.797c.135 0 .202.068.202.203zm-16.1-12.66v.687c0 .135-.067.202-.202.202h-6.796c-.08 0-.121.04-.121.121v4.895c0 .08.04.121.121.121h5.845c.135 0 .203.068.203.203v.687c0 .135-.068.203-.203.203h-5.845c-.08 0-.121.04-.121.12v5.098c0 .08.04.12.121.12h6.796c.135 0 .202.068.202.203v.688c0 .135-.067.202-.202.202h-7.868c-.135 0-.202-.067-.202-.202v-13.349c0-.134.067-.202.202-.202h7.868c.135 0 .202.068.202.202zm-20.771 6.31h-3.52c-.08 0-.12-.041-.12-.122v-5.178c0-.08.04-.121.12-.121h3.52c.984 0 1.739.236 2.265.708s.789 1.14.789 2.002c0 .877-.263 1.548-.79 2.013-.525.465-1.28.697-2.264.697zm1.395.93c.89-.216 1.581-.638 2.073-1.264.492-.627.739-1.42.739-2.377 0-1.186-.371-2.116-1.113-2.79-.742-.675-1.766-1.012-3.074-1.012h-4.612c-.135 0-.202.068-.202.202v13.349c0 .135.067.202.202.202h.749c.134 0 .202-.067.202-.202v-5.825c0-.08.04-.121.121-.121h3.742l2.892 5.966c.054.121.135.182.243.182h.93c.068 0 .111-.02.132-.06.02-.041.01-.095-.03-.162z" fill="#6f6f6f"/></g></svg>