<svg height="199" viewBox="0 0 491 199" width="491" xmlns="http://www.w3.org/2000/svg"><g fill="#fff" fill-rule="evenodd" transform="translate(39 32)"><path d="m67 134c-37.0030782 0-67-29.996922-67-67 0-37.0030782 29.9969218-67 67-67 37.003078 0 67 29.9969218 67 67 0 37.003078-29.996922 67-67 67zm-18-88c-1.6568542 0-3 1.3431458-3 3v36c0 1.6568542 1.3431458 3 3 3h36c1.6568542 0 3-1.3431458 3-3v-36c0-1.6568542-1.3431458-3-3-3z"/><path d="m196.321913 98.8502843h-16.063709v-50.7643715h-18.258204v-13.0448515h52.624007v13.0448515h-18.302094zm40.564732 1.1497157c-15.62481 0-24.885582-9.5957044-24.885582-25.7801642 0-15.9191409 9.524112-25.7359445 24.885582-25.7359445 15.449249 0 24.885581 9.7283639 24.885581 25.7359445 0 16.2286797-9.216882 25.7801642-24.885581 25.7801642zm0-11.9393557c5.705688 0 8.953542-5.0852811 8.953542-13.8408085 0-8.5786482-3.335633-13.7965888-8.953542-13.7965888s-8.953543 5.2179406-8.953543 13.7965888c0 8.7997473 3.247854 13.8408085 8.953543 13.8408085zm31.347849-23.6133922c0 7.7384712 4.784001 12.5584333 14.483672 14.6367656l9.085212 1.9456728c3.906202.8401768 5.35457 1.9456727 5.35457 4.024005 0 2.6531902-2.765065 4.3777638-7.022387 4.3777638-4.564551 0-7.329615-1.636134-8.119634-4.6873026h-14.966461c.877799 9.9052432 8.865763 15.2558433 22.866646 15.2558433 13.649763 0 22.559416-6.5445357 22.559416-16.7593178 0-7.4731522-4.169542-11.4971572-13.781433-13.5312697l-10.094681-2.0783323c-3.862312-.8401769-5.617909-2.0783323-5.617909-4.1566645 0-2.6531902 2.808955-4.4219836 6.846827-4.4219836 4.213432 0 6.802937 1.7245736 7.241836 4.5988629h14.132552c-.570569-9.9052432-7.987964-15.1674037-21.506058-15.1674037-13.166974 0-21.462168 6.1907771-21.462168 15.9633608zm52.327229 34.4030322h15.493139v-27.9027164c0-5.660139 3.160074-9.5072647 8.470754-9.5072647 5.13512 0 7.900184 3.228048 7.900184 9.3303854v28.0795957h15.49314v-31.6171826c0-11.9393556-6.100698-18.5281112-16.722057-18.5281112-7.022386 0-12.464736 3.4491472-14.615342 9.1092862h-.833908v-26.6203411h-15.18591zm56.891779 0h15.53703v-49.2166772h-15.53703zm7.768515-54.921036c5.486239 0 8.777983-2.7858497 8.777983-6.9425143 0-4.2008843-3.291744-6.986734-8.777983-6.986734-5.442349 0-8.734093 2.7858497-8.734093 6.986734 0 4.1566646 3.291744 6.9425143 8.734093 6.9425143z"/></g></svg>