<svg height="199" width="490" xmlns="http://www.w3.org/2000/svg"><linearGradient id="a" x1="50%" x2="50%" y1="0%" y2="100%"><stop offset="0" stop-color="#52ff5b"/><stop offset="1" stop-color="#02be6e"/></linearGradient><g fill="none" fill-rule="evenodd"><path d="M79 70h55v57H79z" fill="#fff"/><path d="M106 166c-37.003 0-67-29.997-67-67s29.997-67 67-67 67 29.997 67 67-29.997 67-67 67zM88 78a3 3 0 0 0-3 3v36a3 3 0 0 0 3 3h36a3 3 0 0 0 3-3V81a3 3 0 0 0-3-3z" fill="url(#a)"/><path d="M235.322 130.85h-16.064V80.086H201V67.04h52.624v13.045h-18.302zm40.565 1.15C260.262 132 251 122.404 251 106.22c0-15.92 9.524-25.736 24.886-25.736 15.449 0 24.885 9.728 24.885 25.736 0 16.229-9.217 25.78-24.885 25.78zm0-11.94c5.705 0 8.953-5.085 8.953-13.84 0-8.579-3.335-13.797-8.953-13.797-5.618 0-8.954 5.218-8.954 13.797 0 8.8 3.248 13.84 8.954 13.84zm31.347-23.613c0 7.739 4.784 12.559 14.484 14.637l9.085 1.946c3.907.84 5.355 1.945 5.355 4.024 0 2.653-2.765 4.377-7.022 4.377-4.565 0-7.33-1.636-8.12-4.687h-14.967c.878 9.905 8.866 15.256 22.867 15.256 13.65 0 22.56-6.545 22.56-16.76 0-7.472-4.17-11.496-13.782-13.53L327.6 99.63c-3.862-.84-5.617-2.078-5.617-4.157 0-2.653 2.808-4.422 6.846-4.422 4.214 0 6.803 1.725 7.242 4.6h14.133c-.57-9.906-7.988-15.168-21.506-15.168-13.167 0-21.463 6.19-21.463 15.963zm52.328 34.403h15.493v-27.902c0-5.66 3.16-9.508 8.47-9.508 5.136 0 7.9 3.228 7.9 9.33v28.08h15.494V99.233c0-11.94-6.1-18.528-16.722-18.528-7.023 0-12.465 3.45-14.615 9.11h-.834V63.193h-15.186zm56.892 0h15.537V81.634h-15.537zm7.768-54.92c5.486 0 8.778-2.787 8.778-6.943 0-4.201-3.292-6.987-8.778-6.987-5.442 0-8.734 2.786-8.734 6.987 0 4.156 3.292 6.942 8.734 6.942z" fill="#fff"/></g></svg>